<svg width="500" height="500" viewBox="0 0 500 500" fill="none" xmlns="http://www.w3.org/2000/svg">
<path d="M201.527 201.645C188.311 214.861 181.703 230.811 181.703 249.496C181.703 268.181 188.311 284.132 201.527 297.348C214.743 310.564 230.694 317.172 249.379 317.172C268.064 317.172 284.014 310.564 297.23 297.348C310.447 284.132 317.055 268.181 317.055 249.496C317.055 230.811 310.447 214.861 297.23 201.645C284.014 188.428 268.064 181.82 249.379 181.82C230.694 181.82 214.743 188.428 201.527 201.645ZM175.722 280.6C171.506 270.688 169.398 260.32 169.398 249.496C169.398 238.673 171.506 228.362 175.722 218.563C179.937 208.651 185.634 200.106 192.812 192.929C199.989 185.751 208.477 180.054 218.275 175.839C228.188 171.623 238.555 169.516 249.379 169.516C260.202 169.516 270.513 171.623 280.312 175.839C290.224 180.054 298.769 185.751 305.946 192.929C313.124 200.106 318.821 208.651 323.036 218.563C327.252 228.362 329.359 238.673 329.359 249.496C329.359 260.32 327.252 270.688 323.036 280.6C318.821 290.398 313.124 298.886 305.946 306.063C298.769 313.241 290.224 318.938 280.312 323.153C270.513 327.369 260.202 329.477 249.379 329.477C238.555 329.477 228.188 327.369 218.275 323.153C208.477 318.938 199.989 313.241 192.812 306.063C185.634 298.886 179.937 290.398 175.722 280.6ZM169.398 203.183C161.195 217.31 157.094 232.748 157.094 249.496C157.094 266.244 161.195 281.682 169.398 295.81C177.715 309.937 188.938 321.16 203.065 329.477C217.193 337.68 232.631 341.781 249.379 341.781C266.127 341.781 281.565 337.68 295.692 329.477C309.82 321.16 320.985 309.937 329.188 295.81C337.506 281.682 341.664 266.244 341.664 249.496C341.664 232.748 337.506 217.31 329.188 203.183C320.985 189.055 309.82 177.89 295.692 169.687C281.565 161.369 266.127 157.211 249.379 157.211C232.631 157.211 217.193 161.369 203.065 169.687C188.938 177.89 177.715 189.055 169.398 203.183ZM158.803 301.962C149.46 285.897 144.789 268.409 144.789 249.496C144.789 230.583 149.46 213.095 158.803 197.03C168.145 180.966 180.849 168.262 196.913 158.92C212.978 149.577 230.466 144.906 249.379 144.906C268.292 144.906 285.78 149.577 301.845 158.92C317.909 168.262 330.613 180.966 339.955 197.03C349.298 213.095 353.969 230.583 353.969 249.496C353.969 268.409 349.298 285.897 339.955 301.962C330.613 318.026 317.909 330.73 301.845 340.072C285.78 349.415 268.292 354.086 249.379 354.086C230.466 354.086 212.978 349.415 196.913 340.072C180.849 330.73 168.145 318.026 158.803 301.962ZM141.713 204.037C135.561 218.507 132.484 233.66 132.484 249.496C132.484 265.333 135.561 280.486 141.713 294.955C147.865 309.424 156.125 321.9 166.493 332.382C176.975 342.75 189.451 351.01 203.92 357.162C218.389 363.314 233.542 366.391 249.379 366.391C265.215 366.391 280.368 363.314 294.838 357.162C309.307 351.01 321.726 342.75 332.094 332.382C342.576 321.9 350.893 309.424 357.045 294.955C363.197 280.486 366.273 265.333 366.273 249.496C366.273 233.66 363.197 218.507 357.045 204.037C350.893 189.568 342.576 177.149 332.094 166.781C321.726 156.299 309.307 147.982 294.838 141.83C280.368 135.678 265.215 132.602 249.379 132.602C233.542 132.602 218.389 135.678 203.92 141.83C189.451 147.982 176.975 156.299 166.493 166.781C156.125 177.149 147.865 189.568 141.713 204.037ZM137.44 314.267C125.933 294.442 120.18 272.852 120.18 249.496C120.18 226.14 125.933 204.55 137.44 184.726C149.062 164.901 164.784 149.236 184.608 137.729C204.433 126.107 226.023 120.297 249.379 120.297C272.735 120.297 294.325 126.107 314.149 137.729C333.974 149.236 349.639 164.901 361.146 184.726C372.768 204.55 378.578 226.14 378.578 249.496C378.578 272.852 372.768 294.442 361.146 314.267C349.639 334.091 333.974 349.813 314.149 361.435C294.325 372.942 272.735 378.695 249.379 378.695C226.023 378.695 204.433 372.942 184.608 361.435C164.784 349.813 149.062 334.091 137.44 314.267ZM118.983 194.638C111.578 212.069 107.875 230.355 107.875 249.496C107.875 268.637 111.578 286.98 118.983 304.525C126.503 321.957 136.586 336.996 149.232 349.643C161.879 362.289 176.918 372.372 194.35 379.892C211.895 387.297 230.238 391 249.379 391C268.52 391 286.806 387.297 304.237 379.892C321.783 372.372 336.879 362.289 349.525 349.643C362.172 336.996 372.198 321.957 379.604 304.525C387.123 286.98 390.883 268.637 390.883 249.496C390.883 230.355 387.123 212.069 379.604 194.638C372.198 177.092 362.172 161.996 349.525 149.35C336.879 136.703 321.783 126.677 304.237 119.271C286.806 111.752 268.52 107.992 249.379 107.992C230.238 107.992 211.895 111.752 194.35 119.271C176.918 126.677 161.879 136.703 149.232 149.35C136.586 161.996 126.503 177.092 118.983 194.638ZM107.704 309.311C99.6149 290.284 95.5703 270.346 95.5703 249.496C95.5703 228.646 99.6149 208.765 107.704 189.853C115.907 170.826 126.845 154.477 140.517 140.805C154.302 127.019 170.652 116.081 189.564 107.992C208.591 99.7891 228.529 95.6875 249.379 95.6875C270.229 95.6875 290.11 99.7891 309.022 107.992C328.049 116.081 344.398 127.019 358.07 140.805C371.856 154.477 382.794 170.826 390.883 189.853C399.086 208.765 403.188 228.646 403.188 249.496C403.188 270.346 399.086 290.284 390.883 309.311C382.794 328.223 371.856 344.573 358.07 358.358C344.398 372.03 328.049 382.911 309.022 391C290.11 399.203 270.229 403.305 249.379 403.305C228.529 403.305 208.591 399.203 189.564 391C170.652 382.911 154.302 372.03 140.517 358.358C126.845 344.573 115.907 328.223 107.704 309.311Z" fill="white"/>
</svg>
